# MagicaVoxel @ Ephtracy

# material
mtllib PickAxe.mtl
usemtl palette

# normals
vn -1 0 0
vn 1 0 0
vn 0 0 1
vn 0 0 -1
vn 0 -1 0
vn 0 1 0

# texcoords
vt 0.537109 0.5
vt 0.966797 0.5
vt 0.986328 0.5
vt 0.994141 0.5

# verts
v -6.5 0 0.5
v -6.5 0 -0.5
v -6.5 1 0.5
v -6.5 1 -0.5
v -6.5 2 0.5
v -6.5 2 -0.5
v -5.5 2 0.5
v -5.5 2 -0.5
v -5.5 3 0.5
v -5.5 3 -0.5
v -4.5 3 0.5
v -4.5 3 -0.5
v -4.5 4 0.5
v -4.5 4 -0.5
v -3.5 4 0.5
v -3.5 4 -0.5
v -3.5 5 0.5
v -3.5 5 -0.5
v -2.5 5 0.5
v -2.5 5 -0.5
v -2.5 6 0.5
v -2.5 6 -0.5
v -2.5 11 0.5
v -2.5 11 -0.5
v -2.5 12 0.5
v -2.5 12 -0.5
v -1.5 6 0.5
v -1.5 6 -0.5
v -1.5 7 0.5
v -1.5 7 -0.5
v -1.5 10 0.5
v -1.5 10 -0.5
v -1.5 11 0.5
v -1.5 11 -0.5
v -1.5 12 0.5
v -1.5 12 -0.5
v -1.5 13 0.5
v -1.5 13 -0.5
v -0.5 7 0.5
v -0.5 7 -0.5
v -0.5 8 0.5
v -0.5 8 -0.5
v 0.5 8 0.5
v 0.5 8 -0.5
v 0.5 9 0.5
v 0.5 9 -0.5
v 1.5 9 0.5
v 1.5 9 -0.5
v 1.5 10 0.5
v 1.5 10 -0.5
v 3.5 5 0.5
v 3.5 5 -0.5
v 3.5 8 0.5
v 3.5 8 -0.5
v 4.5 4 0.5
v 4.5 4 -0.5
v 4.5 5 0.5
v 4.5 5 -0.5
v -4.5 0 0.5
v -4.5 0 -0.5
v -4.5 1 0.5
v -4.5 1 -0.5
v -3.5 1 0.5
v -3.5 1 -0.5
v -3.5 2 0.5
v -3.5 2 -0.5
v -2.5 2 0.5
v -2.5 2 -0.5
v -2.5 3 0.5
v -2.5 3 -0.5
v -1.5 3 0.5
v -1.5 3 -0.5
v -1.5 4 0.5
v -1.5 4 -0.5
v -0.5 4 0.5
v -0.5 4 -0.5
v -0.5 5 0.5
v -0.5 5 -0.5
v 0.5 5 0.5
v 0.5 5 -0.5
v 0.5 6 0.5
v 0.5 6 -0.5
v 1.5 6 0.5
v 1.5 6 -0.5
v 1.5 7 0.5
v 1.5 7 -0.5
v 2.5 7 0.5
v 2.5 7 -0.5
v 2.5 8 0.5
v 2.5 8 -0.5
v 2.5 12 0.5
v 2.5 12 -0.5
v 2.5 13 0.5
v 2.5 13 -0.5
v 5.5 4 0.5
v 5.5 4 -0.5
v 5.5 5 0.5
v 5.5 5 -0.5
v 5.5 9 0.5
v 5.5 9 -0.5
v 5.5 10 0.5
v 5.5 10 -0.5
v 5.5 11 0.5
v 5.5 11 -0.5
v 5.5 12 0.5
v 5.5 12 -0.5
v 6.5 5 0.5
v 6.5 5 -0.5
v 6.5 9 0.5
v 6.5 9 -0.5
v -6.5 0 0.5
v -6.5 1 0.5
v -6.5 2 0.5
v -5.5 0 0.5
v -5.5 1 0.5
v -5.5 2 0.5
v -5.5 3 0.5
v -4.5 0 0.5
v -4.5 1 0.5
v -4.5 2 0.5
v -4.5 3 0.5
v -4.5 4 0.5
v -3.5 1 0.5
v -3.5 2 0.5
v -3.5 3 0.5
v -3.5 4 0.5
v -3.5 5 0.5
v -2.5 2 0.5
v -2.5 3 0.5
v -2.5 4 0.5
v -2.5 5 0.5
v -2.5 6 0.5
v -2.5 11 0.5
v -2.5 12 0.5
v -1.5 3 0.5
v -1.5 4 0.5
v -1.5 5 0.5
v -1.5 6 0.5
v -1.5 7 0.5
v -1.5 10 0.5
v -1.5 11 0.5
v -1.5 12 0.5
v -1.5 13 0.5
v -0.5 4 0.5
v -0.5 5 0.5
v -0.5 6 0.5
v -0.5 7 0.5
v -0.5 8 0.5
v 0.5 5 0.5
v 0.5 6 0.5
v 0.5 7 0.5
v 0.5 8 0.5
v 0.5 9 0.5
v 1.5 6 0.5
v 1.5 7 0.5
v 1.5 8 0.5
v 1.5 9 0.5
v 1.5 10 0.5
v 1.5 11 0.5
v 2.5 7 0.5
v 2.5 8 0.5
v 2.5 9 0.5
v 2.5 10 0.5
v 2.5 11 0.5
v 2.5 12 0.5
v 2.5 13 0.5
v 3.5 5 0.5
v 3.5 8 0.5
v 3.5 9 0.5
v 3.5 10 0.5
v 3.5 11 0.5
v 3.5 12 0.5
v 4.5 4 0.5
v 4.5 5 0.5
v 4.5 8 0.5
v 4.5 9 0.5
v 4.5 10 0.5
v 4.5 11 0.5
v 4.5 12 0.5
v 5.5 4 0.5
v 5.5 5 0.5
v 5.5 9 0.5
v 5.5 10 0.5
v 5.5 11 0.5
v 5.5 12 0.5
v 6.5 5 0.5
v 6.5 9 0.5
v -6.5 0 -0.5
v -6.5 1 -0.5
v -6.5 2 -0.5
v -5.5 0 -0.5
v -5.5 1 -0.5
v -5.5 2 -0.5
v -5.5 3 -0.5
v -4.5 0 -0.5
v -4.5 1 -0.5
v -4.5 2 -0.5
v -4.5 3 -0.5
v -4.5 4 -0.5
v -3.5 1 -0.5
v -3.5 2 -0.5
v -3.5 3 -0.5
v -3.5 4 -0.5
v -3.5 5 -0.5
v -2.5 2 -0.5
v -2.5 3 -0.5
v -2.5 4 -0.5
v -2.5 5 -0.5
v -2.5 6 -0.5
v -2.5 11 -0.5
v -2.5 12 -0.5
v -1.5 3 -0.5
v -1.5 4 -0.5
v -1.5 5 -0.5
v -1.5 6 -0.5
v -1.5 7 -0.5
v -1.5 10 -0.5
v -1.5 11 -0.5
v -1.5 12 -0.5
v -1.5 13 -0.5
v -0.5 4 -0.5
v -0.5 5 -0.5
v -0.5 6 -0.5
v -0.5 7 -0.5
v -0.5 8 -0.5
v 0.5 5 -0.5
v 0.5 6 -0.5
v 0.5 7 -0.5
v 0.5 8 -0.5
v 0.5 9 -0.5
v 1.5 6 -0.5
v 1.5 7 -0.5
v 1.5 8 -0.5
v 1.5 9 -0.5
v 1.5 10 -0.5
v 1.5 11 -0.5
v 2.5 7 -0.5
v 2.5 8 -0.5
v 2.5 9 -0.5
v 2.5 10 -0.5
v 2.5 11 -0.5
v 2.5 12 -0.5
v 2.5 13 -0.5
v 3.5 5 -0.5
v 3.5 8 -0.5
v 3.5 9 -0.5
v 3.5 10 -0.5
v 3.5 11 -0.5
v 3.5 12 -0.5
v 4.5 4 -0.5
v 4.5 5 -0.5
v 4.5 8 -0.5
v 4.5 9 -0.5
v 4.5 10 -0.5
v 4.5 11 -0.5
v 4.5 12 -0.5
v 5.5 4 -0.5
v 5.5 5 -0.5
v 5.5 9 -0.5
v 5.5 10 -0.5
v 5.5 11 -0.5
v 5.5 12 -0.5
v 6.5 5 -0.5
v 6.5 9 -0.5
v -6.5 0 0.5
v -5.5 0 0.5
v -4.5 0 0.5
v -6.5 0 -0.5
v -5.5 0 -0.5
v -4.5 0 -0.5
v -4.5 1 0.5
v -3.5 1 0.5
v -4.5 1 -0.5
v -3.5 1 -0.5
v -3.5 2 0.5
v -2.5 2 0.5
v -3.5 2 -0.5
v -2.5 2 -0.5
v -2.5 3 0.5
v -1.5 3 0.5
v -2.5 3 -0.5
v -1.5 3 -0.5
v -1.5 4 0.5
v -0.5 4 0.5
v 4.5 4 0.5
v 5.5 4 0.5
v -1.5 4 -0.5
v -0.5 4 -0.5
v 4.5 4 -0.5
v 5.5 4 -0.5
v -0.5 5 0.5
v 0.5 5 0.5
v 3.5 5 0.5
v 4.5 5 0.5
v 5.5 5 0.5
v 6.5 5 0.5
v -0.5 5 -0.5
v 0.5 5 -0.5
v 3.5 5 -0.5
v 4.5 5 -0.5
v 5.5 5 -0.5
v 6.5 5 -0.5
v 0.5 6 0.5
v 1.5 6 0.5
v 0.5 6 -0.5
v 1.5 6 -0.5
v 1.5 7 0.5
v 2.5 7 0.5
v 1.5 7 -0.5
v 2.5 7 -0.5
v 2.5 8 0.5
v 3.5 8 0.5
v 2.5 8 -0.5
v 3.5 8 -0.5
v -1.5 10 0.5
v 1.5 10 0.5
v -1.5 10 -0.5
v 1.5 10 -0.5
v -2.5 11 0.5
v -1.5 11 0.5
v -2.5 11 -0.5
v -1.5 11 -0.5
v -6.5 2 0.5
v -5.5 2 0.5
v -6.5 2 -0.5
v -5.5 2 -0.5
v -5.5 3 0.5
v -4.5 3 0.5
v -5.5 3 -0.5
v -4.5 3 -0.5
v -4.5 4 0.5
v -3.5 4 0.5
v -4.5 4 -0.5
v -3.5 4 -0.5
v -3.5 5 0.5
v -2.5 5 0.5
v -3.5 5 -0.5
v -2.5 5 -0.5
v -2.5 6 0.5
v -1.5 6 0.5
v -2.5 6 -0.5
v -1.5 6 -0.5
v -1.5 7 0.5
v -0.5 7 0.5
v -1.5 7 -0.5
v -0.5 7 -0.5
v -0.5 8 0.5
v 0.5 8 0.5
v -0.5 8 -0.5
v 0.5 8 -0.5
v 0.5 9 0.5
v 1.5 9 0.5
v 5.5 9 0.5
v 6.5 9 0.5
v 0.5 9 -0.5
v 1.5 9 -0.5
v 5.5 9 -0.5
v 6.5 9 -0.5
v -2.5 12 0.5
v -1.5 12 0.5
v 2.5 12 0.5
v 3.5 12 0.5
v 4.5 12 0.5
v 5.5 12 0.5
v -2.5 12 -0.5
v -1.5 12 -0.5
v 2.5 12 -0.5
v 3.5 12 -0.5
v 4.5 12 -0.5
v 5.5 12 -0.5
v -1.5 13 0.5
v 2.5 13 0.5
v -1.5 13 -0.5
v 2.5 13 -0.5

# faces
f 3/1/1 2/1/1 1/1/1
f 4/1/1 2/1/1 3/1/1
f 5/4/1 4/4/1 3/4/1
f 6/4/1 4/4/1 5/4/1
f 9/4/1 8/4/1 7/4/1
f 10/4/1 8/4/1 9/4/1
f 13/4/1 12/4/1 11/4/1
f 14/4/1 12/4/1 13/4/1
f 17/4/1 16/4/1 15/4/1
f 18/4/1 16/4/1 17/4/1
f 21/4/1 20/4/1 19/4/1
f 22/4/1 20/4/1 21/4/1
f 25/3/1 24/3/1 23/3/1
f 26/3/1 24/3/1 25/3/1
f 29/4/1 28/4/1 27/4/1
f 30/4/1 28/4/1 29/4/1
f 33/3/1 32/3/1 31/3/1
f 34/3/1 32/3/1 33/3/1
f 37/3/1 36/3/1 35/3/1
f 38/3/1 36/3/1 37/3/1
f 41/4/1 40/4/1 39/4/1
f 42/4/1 40/4/1 41/4/1
f 45/4/1 44/4/1 43/4/1
f 46/4/1 44/4/1 45/4/1
f 49/4/1 48/4/1 47/4/1
f 50/4/1 48/4/1 49/4/1
f 53/3/1 52/3/1 51/3/1
f 54/3/1 52/3/1 53/3/1
f 57/3/1 56/3/1 55/3/1
f 58/3/1 56/3/1 57/3/1
f 59/4/2 60/4/2 61/4/2
f 61/4/2 60/4/2 62/4/2
f 63/4/2 64/4/2 65/4/2
f 65/4/2 64/4/2 66/4/2
f 67/4/2 68/4/2 69/4/2
f 69/4/2 68/4/2 70/4/2
f 71/4/2 72/4/2 73/4/2
f 73/4/2 72/4/2 74/4/2
f 75/4/2 76/4/2 77/4/2
f 77/4/2 76/4/2 78/4/2
f 79/4/2 80/4/2 81/4/2
f 81/4/2 80/4/2 82/4/2
f 83/4/2 84/4/2 85/4/2
f 85/4/2 84/4/2 86/4/2
f 87/4/2 88/4/2 89/4/2
f 89/4/2 88/4/2 90/4/2
f 91/3/2 92/3/2 93/3/2
f 93/3/2 92/3/2 94/3/2
f 95/3/2 96/3/2 97/3/2
f 97/3/2 96/3/2 98/3/2
f 99/3/2 100/3/2 101/3/2
f 101/3/2 100/3/2 102/3/2
f 101/4/2 102/4/2 103/4/2
f 103/4/2 102/4/2 104/4/2
f 103/1/2 104/1/2 105/1/2
f 105/1/2 104/1/2 106/1/2
f 107/3/2 108/3/2 109/3/2
f 109/3/2 108/3/2 110/3/2
f 114/1/3 112/1/3 111/1/3
f 115/4/3 113/4/3 112/4/3
f 115/1/3 112/1/3 114/1/3
f 116/4/3 113/4/3 115/4/3
f 118/4/3 115/4/3 114/4/3
f 119/1/3 116/1/3 115/1/3
f 119/4/3 115/4/3 118/4/3
f 120/4/3 117/4/3 116/4/3
f 120/1/3 116/1/3 119/1/3
f 121/4/3 117/4/3 120/4/3
f 123/4/3 120/4/3 119/4/3
f 124/1/3 121/1/3 120/1/3
f 124/4/3 120/4/3 123/4/3
f 125/4/3 122/4/3 121/4/3
f 125/1/3 121/1/3 124/1/3
f 126/4/3 122/4/3 125/4/3
f 128/4/3 125/4/3 124/4/3
f 129/1/3 126/1/3 125/1/3
f 129/4/3 125/4/3 128/4/3
f 130/4/3 127/4/3 126/4/3
f 130/1/3 126/1/3 129/1/3
f 131/4/3 127/4/3 130/4/3
f 135/4/3 130/4/3 129/4/3
f 136/1/3 131/1/3 130/1/3
f 136/4/3 130/4/3 135/4/3
f 137/4/3 132/4/3 131/4/3
f 137/1/3 131/1/3 136/1/3
f 138/4/3 132/4/3 137/4/3
f 141/3/3 134/3/3 133/3/3
f 142/3/3 134/3/3 141/3/3
f 144/4/3 137/4/3 136/4/3
f 145/1/3 138/1/3 137/1/3
f 145/4/3 137/4/3 144/4/3
f 146/4/3 139/4/3 138/4/3
f 146/1/3 138/1/3 145/1/3
f 147/4/3 139/4/3 146/4/3
f 149/4/3 146/4/3 145/4/3
f 150/1/3 147/1/3 146/1/3
f 150/4/3 146/4/3 149/4/3
f 151/4/3 148/4/3 147/4/3
f 151/1/3 147/1/3 150/1/3
f 152/4/3 148/4/3 151/4/3
f 154/4/3 151/4/3 150/4/3
f 155/1/3 152/1/3 151/1/3
f 155/4/3 151/4/3 154/4/3
f 156/4/3 153/4/3 152/4/3
f 156/1/3 152/1/3 155/1/3
f 157/4/3 153/4/3 156/4/3
f 158/3/3 141/3/3 140/3/3
f 159/2/3 142/2/3 141/2/3
f 159/3/3 141/3/3 158/3/3
f 160/4/3 156/4/3 155/4/3
f 161/1/3 157/1/3 156/1/3
f 161/4/3 156/4/3 160/4/3
f 162/4/3 158/4/3 157/4/3
f 162/1/3 157/1/3 161/1/3
f 163/2/3 159/2/3 158/2/3
f 163/4/3 158/4/3 162/4/3
f 164/2/3 142/2/3 159/2/3
f 164/2/3 159/2/3 163/2/3
f 165/3/3 143/3/3 142/3/3
f 165/2/3 142/2/3 164/2/3
f 166/3/3 143/3/3 165/3/3
f 168/4/3 162/4/3 161/4/3
f 169/2/3 163/2/3 162/2/3
f 169/2/3 164/2/3 163/2/3
f 169/4/3 162/4/3 168/4/3
f 170/2/3 164/2/3 169/2/3
f 171/3/3 165/3/3 164/3/3
f 171/2/3 164/2/3 170/2/3
f 172/3/3 165/3/3 171/3/3
f 174/3/3 168/3/3 167/3/3
f 175/2/3 170/2/3 169/2/3
f 175/2/3 169/2/3 168/2/3
f 175/3/3 168/3/3 174/3/3
f 176/2/3 170/2/3 175/2/3
f 177/1/3 171/1/3 170/1/3
f 177/2/3 170/2/3 176/2/3
f 178/4/3 172/4/3 171/4/3
f 178/1/3 171/1/3 177/1/3
f 179/4/3 172/4/3 178/4/3
f 180/3/3 174/3/3 173/3/3
f 181/2/3 176/2/3 175/2/3
f 181/3/3 174/3/3 180/3/3
f 181/2/3 175/2/3 174/2/3
f 182/3/3 177/3/3 176/3/3
f 182/2/3 176/2/3 181/2/3
f 183/4/3 178/4/3 177/4/3
f 183/3/3 177/3/3 182/3/3
f 184/1/3 179/1/3 178/1/3
f 184/4/3 178/4/3 183/4/3
f 185/1/3 179/1/3 184/1/3
f 186/3/3 182/3/3 181/3/3
f 187/3/3 182/3/3 186/3/3
f 188/1/4 189/1/4 191/1/4
f 189/4/4 190/4/4 192/4/4
f 191/1/4 189/1/4 192/1/4
f 192/4/4 190/4/4 193/4/4
f 191/4/4 192/4/4 195/4/4
f 192/1/4 193/1/4 196/1/4
f 195/4/4 192/4/4 196/4/4
f 193/4/4 194/4/4 197/4/4
f 196/1/4 193/1/4 197/1/4
f 197/4/4 194/4/4 198/4/4
f 196/4/4 197/4/4 200/4/4
f 197/1/4 198/1/4 201/1/4
f 200/4/4 197/4/4 201/4/4
f 198/4/4 199/4/4 202/4/4
f 201/1/4 198/1/4 202/1/4
f 202/4/4 199/4/4 203/4/4
f 201/4/4 202/4/4 205/4/4
f 202/1/4 203/1/4 206/1/4
f 205/4/4 202/4/4 206/4/4
f 203/4/4 204/4/4 207/4/4
f 206/1/4 203/1/4 207/1/4
f 207/4/4 204/4/4 208/4/4
f 206/4/4 207/4/4 212/4/4
f 207/1/4 208/1/4 213/1/4
f 212/4/4 207/4/4 213/4/4
f 208/4/4 209/4/4 214/4/4
f 213/1/4 208/1/4 214/1/4
f 214/4/4 209/4/4 215/4/4
f 210/3/4 211/3/4 218/3/4
f 218/3/4 211/3/4 219/3/4
f 213/4/4 214/4/4 221/4/4
f 214/1/4 215/1/4 222/1/4
f 221/4/4 214/4/4 222/4/4
f 215/4/4 216/4/4 223/4/4
f 222/1/4 215/1/4 223/1/4
f 223/4/4 216/4/4 224/4/4
f 222/4/4 223/4/4 226/4/4
f 223/1/4 224/1/4 227/1/4
f 226/4/4 223/4/4 227/4/4
f 224/4/4 225/4/4 228/4/4
f 227/1/4 224/1/4 228/1/4
f 228/4/4 225/4/4 229/4/4
f 227/4/4 228/4/4 231/4/4
f 228/1/4 229/1/4 232/1/4
f 231/4/4 228/4/4 232/4/4
f 229/4/4 230/4/4 233/4/4
f 232/1/4 229/1/4 233/1/4
f 233/4/4 230/4/4 234/4/4
f 217/3/4 218/3/4 235/3/4
f 218/2/4 219/2/4 236/2/4
f 235/3/4 218/3/4 236/3/4
f 232/4/4 233/4/4 237/4/4
f 233/1/4 234/1/4 238/1/4
f 237/4/4 233/4/4 238/4/4
f 234/4/4 235/4/4 239/4/4
f 238/1/4 234/1/4 239/1/4
f 235/2/4 236/2/4 240/2/4
f 239/4/4 235/4/4 240/4/4
f 236/2/4 219/2/4 241/2/4
f 240/2/4 236/2/4 241/2/4
f 219/3/4 220/3/4 242/3/4
f 241/2/4 219/2/4 242/2/4
f 242/3/4 220/3/4 243/3/4
f 238/4/4 239/4/4 245/4/4
f 239/2/4 240/2/4 246/2/4
f 240/2/4 241/2/4 246/2/4
f 245/4/4 239/4/4 246/4/4
f 246/2/4 241/2/4 247/2/4
f 241/3/4 242/3/4 248/3/4
f 247/2/4 241/2/4 248/2/4
f 248/3/4 242/3/4 249/3/4
f 244/3/4 245/3/4 251/3/4
f 246/2/4 247/2/4 252/2/4
f 245/2/4 246/2/4 252/2/4
f 251/3/4 245/3/4 252/3/4
f 252/2/4 247/2/4 253/2/4
f 247/1/4 248/1/4 254/1/4
f 253/2/4 247/2/4 254/2/4
f 248/4/4 249/4/4 255/4/4
f 254/1/4 248/1/4 255/1/4
f 255/4/4 249/4/4 256/4/4
f 250/3/4 251/3/4 257/3/4
f 252/2/4 253/2/4 258/2/4
f 257/3/4 251/3/4 258/3/4
f 251/2/4 252/2/4 258/2/4
f 253/3/4 254/3/4 259/3/4
f 258/2/4 253/2/4 259/2/4
f 254/4/4 255/4/4 260/4/4
f 259/3/4 254/3/4 260/3/4
f 255/1/4 256/1/4 261/1/4
f 260/4/4 255/4/4 261/4/4
f 261/1/4 256/1/4 262/1/4
f 258/3/4 259/3/4 263/3/4
f 263/3/4 259/3/4 264/3/4
f 268/1/5 266/1/5 265/1/5
f 269/4/5 267/4/5 266/4/5
f 269/1/5 266/1/5 268/1/5
f 270/4/5 267/4/5 269/4/5
f 273/4/5 272/4/5 271/4/5
f 274/4/5 272/4/5 273/4/5
f 277/4/5 276/4/5 275/4/5
f 278/4/5 276/4/5 277/4/5
f 281/4/5 280/4/5 279/4/5
f 282/4/5 280/4/5 281/4/5
f 287/4/5 284/4/5 283/4/5
f 288/4/5 284/4/5 287/4/5
f 289/3/5 286/3/5 285/3/5
f 290/3/5 286/3/5 289/3/5
f 297/4/5 292/4/5 291/4/5
f 298/4/5 292/4/5 297/4/5
f 299/3/5 294/3/5 293/3/5
f 300/3/5 294/3/5 299/3/5
f 301/3/5 296/3/5 295/3/5
f 302/3/5 296/3/5 301/3/5
f 305/4/5 304/4/5 303/4/5
f 306/4/5 304/4/5 305/4/5
f 309/4/5 308/4/5 307/4/5
f 310/4/5 308/4/5 309/4/5
f 313/4/5 312/4/5 311/4/5
f 314/4/5 312/4/5 313/4/5
f 317/3/5 316/3/5 315/3/5
f 318/3/5 316/3/5 317/3/5
f 321/3/5 320/3/5 319/3/5
f 322/3/5 320/3/5 321/3/5
f 323/4/6 324/4/6 325/4/6
f 325/4/6 324/4/6 326/4/6
f 327/4/6 328/4/6 329/4/6
f 329/4/6 328/4/6 330/4/6
f 331/4/6 332/4/6 333/4/6
f 333/4/6 332/4/6 334/4/6
f 335/4/6 336/4/6 337/4/6
f 337/4/6 336/4/6 338/4/6
f 339/4/6 340/4/6 341/4/6
f 341/4/6 340/4/6 342/4/6
f 343/4/6 344/4/6 345/4/6
f 345/4/6 344/4/6 346/4/6
f 347/4/6 348/4/6 349/4/6
f 349/4/6 348/4/6 350/4/6
f 351/4/6 352/4/6 355/4/6
f 355/4/6 352/4/6 356/4/6
f 353/3/6 354/3/6 357/3/6
f 357/3/6 354/3/6 358/3/6
f 359/3/6 360/3/6 365/3/6
f 365/3/6 360/3/6 366/3/6
f 361/3/6 362/3/6 367/3/6
f 362/4/6 363/4/6 368/4/6
f 367/3/6 362/3/6 368/3/6
f 363/1/6 364/1/6 369/1/6
f 368/4/6 363/4/6 369/4/6
f 369/1/6 364/1/6 370/1/6
f 371/3/6 372/3/6 373/3/6
f 373/3/6 372/3/6 374/3/6
